<?xml version="1.0" encoding="utf-8"?>
<!-- Generator: Adobe Illustrator 15.0.2, SVG Export Plug-In . SVG Version: 6.00 Build 0)  -->
<!DOCTYPE svg PUBLIC "-//W3C//DTD SVG 1.1//EN" "http://www.w3.org/Graphics/SVG/1.1/DTD/svg11.dtd">
<svg version="1.1" id="Layer_1" xmlns="http://www.w3.org/2000/svg" xmlns:xlink="http://www.w3.org/1999/xlink" x="0px" y="0px"
	 width="16px" height="15.3px" viewBox="0 0 16 15.3" enable-background="new 0 0 16 15.3" xml:space="preserve">
<path fill-rule="evenodd" clip-rule="evenodd" fill="#FFFFFF" d="M15.5,6.1c-0.1-0.5-0.2-1-0.4-1.4c-0.2-0.5-0.4-0.9-0.7-1.3
	c-0.3-0.4-0.6-0.8-0.9-1.1c-0.3-0.3-0.7-0.7-1.1-0.9C11.9,1,11.4,0.8,11,0.6C10.5,0.4,10,0.3,9.5,0.2C9,0.1,8.5,0,8,0
	C7.5,0,7,0.1,6.5,0.2C6,0.3,5.5,0.4,5,0.6C4.6,0.8,4.1,1,3.7,1.3C3.3,1.6,2.9,1.9,2.6,2.2C2.2,2.6,1.9,3,1.7,3.4
	C1.4,3.8,1.1,4.2,0.9,4.7C0.8,5.1,0.6,5.6,0.5,6.1c-0.1,0.5-0.2,1-0.2,1.5c0,0.5,0.1,1,0.2,1.5c0.1,0.5,0.2,1,0.4,1.4
	c0.2,0.5,0.4,0.9,0.7,1.3c0.3,0.4,0.6,0.8,0.9,1.1c0.3,0.3,0.7,0.7,1.1,0.9c0.4,0.3,0.8,0.5,1.3,0.7C5.5,14.9,6,15,6.5,15.1
	c0.5,0.1,1,0.2,1.5,0.2c0.5,0,1-0.1,1.5-0.2c0.5-0.1,1-0.2,1.4-0.4c0.5-0.2,0.9-0.4,1.3-0.7c0.4-0.3,0.8-0.6,1.1-0.9
	s0.7-0.7,0.9-1.1c0.3-0.4,0.5-0.8,0.7-1.3c0.2-0.5,0.3-0.9,0.4-1.4c0.1-0.5,0.2-1,0.2-1.5C15.7,7.1,15.6,6.6,15.5,6.1z M14.5,7.6
	c-0.1,0-2.3-0.5-4.6-0.2c0-0.1-0.1-0.2-0.1-0.3C9.7,6.7,9.6,6.4,9.4,6.1C12,5,13,3.5,13,3.5C14,4.6,14.5,6,14.5,7.6z M12.3,2.7
	c0,0-0.9,1.4-3.4,2.4C7.8,3.1,6.6,1.4,6.5,1.3C7,1.2,7.5,1.1,8,1.1C9.7,1.1,11.2,1.7,12.3,2.7z M6.4,1.3C6.4,1.3,6.4,1.3,6.4,1.3
	C6.4,1.3,6.4,1.3,6.4,1.3C6.4,1.3,6.4,1.3,6.4,1.3z M5.2,1.7c0.1,0.1,1.3,1.8,2.4,3.8c-3.1,0.8-5.9,0.8-6,0.8C2,4.3,3.4,2.6,5.2,1.7
	z M1.5,7.7c0-0.1,0-0.1,0-0.2c0.1,0,3.3,0.1,6.7-0.9c0.2,0.4,0.4,0.7,0.5,1.1c-0.1,0-0.2,0.1-0.3,0.1C4.9,8.8,3.1,12,3.1,12l0,0
	C2.1,10.9,1.5,9.3,1.5,7.7z M8,14.2c-1.6,0-3-0.6-4.2-1.5C3.9,12.8,4,12.8,4,12.8s1.3-2.7,5.1-4.1c0,0,0,0,0,0
	c0.9,2.4,1.3,4.4,1.4,5C9.8,14,8.9,14.2,8,14.2z M11.7,13.1c-0.1-0.4-0.4-2.3-1.3-4.7c2.1-0.3,3.9,0.2,4.1,0.3
	C14.2,10.5,13.1,12.1,11.7,13.1z"/>
</svg>
