<?xml version="1.0" encoding="utf-8"?>
<!-- Generator: Adobe Illustrator 15.0.2, SVG Export Plug-In . SVG Version: 6.00 Build 0)  -->
<!DOCTYPE svg PUBLIC "-//W3C//DTD SVG 1.1//EN" "http://www.w3.org/Graphics/SVG/1.1/DTD/svg11.dtd">
<svg version="1.1" id="Layer_1" xmlns="http://www.w3.org/2000/svg" xmlns:xlink="http://www.w3.org/1999/xlink" x="0px" y="0px"
	 width="16px" height="15.3px" viewBox="0 0 16 15.3" enable-background="new 0 0 16 15.3" xml:space="preserve">
<g>
	<path fill="#FFFFFF" d="M12.1,4.7c-1.8,0-2.6,1-3.1,1.7v0h0c0,0,0,0,0,0V5H5.5c0,1,0,10.3,0,10.3H9V9.5c0-0.3,0-0.6,0.1-0.8
		c0.2-0.6,0.8-1.3,1.8-1.3c1.2,0,1.7,0.9,1.7,2.3v5.5H16V9.4C16,6.2,14.3,4.7,12.1,4.7z"/>
	<path fill="#FFFFFF" d="M1.9,0C0.8,0,0,0.8,0,1.8c0,1,0.7,1.8,1.9,1.8h0c1.2,0,1.9-0.8,1.9-1.8C3.8,0.8,3.1,0,1.9,0z"/>
	<rect x="0.2" y="5" fill="#FFFFFF" width="3.4" height="10.3"/>
</g>
</svg>
